<?xml version="1.0" encoding="utf-8"?>
<!-- Generator: Adobe Illustrator 17.0.0, SVG Export Plug-In . SVG Version: 6.00 Build 0)  -->
<!DOCTYPE svg PUBLIC "-//W3C//DTD SVG 1.1//EN" "http://www.w3.org/Graphics/SVG/1.1/DTD/svg11.dtd">
<svg version="1.1" xmlns="http://www.w3.org/2000/svg" xmlns:xlink="http://www.w3.org/1999/xlink" x="0px" y="0px" width="792px"
	 height="612px" viewBox="0 0 792 612" enable-background="new 0 0 792 612" xml:space="preserve">
<g id="Layer_1">
</g>
<g id="outlined">
	<g>
		<g>
			<path fill="#2A3380" d="M115.635,241.88v15.59c10.005-11.867,21.872-18.382,36.298-18.382c26.526,0,44.675,21.872,44.675,60.497
				c0,41.65-20.941,63.755-47.467,63.755c-13.263,0-23.966-5.584-33.506-16.753v62.824H86.783V241.88H115.635z M115.635,277.48
				v50.026c8.144,8.609,16.753,12.798,25.828,12.798c15.589,0,26.293-11.867,26.293-38.393s-10.704-38.16-25.362-38.16
				C133.086,263.752,124.477,268.406,115.635,277.48z"/>
			<path fill="#2A3380" d="M292.237,265.614c-1.862-0.232-4.887-0.465-7.446-0.465c-16.753,0-29.318,11.169-34.204,16.288v79.112
				h-28.853V241.88h28.853v18.382c6.748-11.168,18.614-21.174,34.437-21.174c2.56,0,5.352,0.232,7.213,0.698V265.614z"/>
			<path fill="#2A3380" d="M359.018,363.34c-30.016,0-55.378-19.312-55.378-61.66c0-42.813,25.828-62.591,56.309-62.591
				c30.016,0,55.378,19.312,55.378,61.661C415.327,343.562,389.5,363.34,359.018,363.34z M359.483,342.166
				c14.892,0,26.991-11.401,26.991-40.486c0-29.085-12.1-40.487-26.991-40.487s-26.991,11.401-26.991,40.487
				C332.493,330.765,344.592,342.166,359.483,342.166z"/>
			<path fill="#2A3380" d="M429.055,241.88h20.011v-39.556h28.853v39.556h25.828v22.337h-25.828v59.566
				c0,11.867,2.792,15.357,11.867,15.357c5.352,0,10.005-1.164,13.961-2.327v23.035c-6.05,1.164-13.496,2.095-21.872,2.095
				c-24.199,0-32.809-7.679-32.809-33.739v-63.987h-20.011V241.88z"/>
		</g>
	</g>
	<g>
		<g>
			<path fill="#2A3380" d="M537.349,302.048c0-24.387,12.235-46.039,31.146-59.669h-37.429v118.567h36.376
				C549.131,347.281,537.349,325.981,537.349,302.048z"/>
			<path fill="#2A3380" d="M699.08,302.048c0-24.387-12.232-46.039-31.146-59.669h37.431v118.567H668.99
				C687.305,347.281,699.08,325.981,699.08,302.048z"/>
		</g>
	</g>
	<g>
		<g>
			<path fill="#16AF4B" d="M601.579,299.307l-35.604-57.007h30.248l22.806,39.091l22.572-39.091h29.316l-35.599,57.007
				l38.628,61.665h-30.253l-25.829-43.747l-25.595,43.747h-29.317L601.579,299.307z"/>
		</g>
	</g>
	<g>
		<g>
			<path fill="#2A3380" d="M231.814,397.038h-5.042v12.585h-5.167v-30.004h11.543c6.459,0,10.251,2.876,10.251,8.668
				c0,4.501-2.292,7.126-6.209,8.251l7.459,13.085h-5.834L231.814,397.038z M232.606,393.121c3.834,0,5.625-1.292,5.625-4.501
				c0-3.208-1.792-4.5-5.625-4.5h-5.834v9.001H232.606z"/>
			<path fill="#2A3380" d="M251.311,379.619h5.25v30.004h-5.25V379.619z"/>
			<path fill="#2A3380" d="M264.352,403.081c2.542,1.541,5.292,2.667,8.126,2.667c3.5,0,5.626-1.709,5.626-4.334
				c0-6.793-14.252-3.167-14.252-13.335c0-5.501,4.167-8.96,10.209-8.96c3.209,0,6.126,0.959,8.459,2.5l-1.333,4.668
				c-2.167-1.5-4.584-2.626-7.167-2.626c-3.042,0-4.917,1.584-4.917,3.876c0,6.376,14.252,2.667,14.252,13.21
				c0,5.792-4.334,9.376-10.876,9.376c-3.292,0-6.709-0.917-9.459-2.542L264.352,403.081z"/>
			<path fill="#2A3380" d="M289.517,379.619h5.251v13.627l11.209-13.627h6.209l-9.834,11.168l10.709,18.836h-5.834l-8.334-14.919
				l-4.125,4.668v10.251h-5.251V379.619z"/>
			<path fill="#2A3380" d="M354.184,393.454c-0.125-2.292-0.292-5.792-0.292-7.251h-0.083c-0.25,1.459-1.333,4.709-2.042,6.835
				l-5.667,16.585h-4.75l-5.625-16.627c-1.667-4.917-1.792-5.417-2.083-6.793h-0.083c0,1.459-0.125,5.084-0.25,7.376l-1,16.044
				h-5.084l2.5-30.004h6.792l5.376,16.919c0.792,2.5,1.458,4.667,1.875,6.876h0.083c0.5-2.209,1.167-4.376,2-6.959l5.542-16.836
				h6.667l2.375,30.004h-5.292L354.184,393.454z"/>
			<path fill="#2A3380" d="M391.64,409.623h-5.5l-2.208-7.001h-11.293l-2.208,7.001h-5.292l10.251-30.004h6.209L391.64,409.623z
				 M373.971,398.497h8.668l-4.292-13.71L373.971,398.497z"/>
			<path fill="#2A3380" d="M396.885,379.619h5.626l12.501,19.961v-19.961h4.876v30.004h-4.376l-13.751-21.961v21.961h-4.876V379.619
				z"/>
			<path fill="#2A3380" d="M451.636,409.623h-5.501l-2.208-7.001h-11.293l-2.209,7.001h-5.292l10.251-30.004h6.209L451.636,409.623z
				 M433.967,398.497h8.668l-4.292-13.71L433.967,398.497z"/>
			<path fill="#2A3380" d="M473.301,405.122v-7.417h-5.668v-4.084h10.627v13.877c-2.793,1.625-6.085,2.625-9.793,2.625
				c-8.376,0-13.752-5.126-13.752-15.127c0-10.376,5.792-15.877,14.293-15.877c3.834,0,6.793,1.125,9.252,2.834l-1.334,4.709
				c-2.417-1.792-4.834-2.959-7.959-2.959c-5.251,0-9.001,3.334-9.001,11.21c0,7.792,3.708,10.96,9.126,10.96
				C470.634,405.873,471.967,405.623,473.301,405.122z"/>
			<path fill="#2A3380" d="M485.464,379.619h19.086v4.584h-13.835v7.918H502.8v4.334h-12.085v8.751h13.96v4.417h-19.211V379.619z"/>
			<path fill="#2A3380" d="M537.091,393.454c-0.125-2.292-0.292-5.792-0.292-7.251h-0.083c-0.25,1.459-1.333,4.709-2.042,6.835
				l-5.667,16.585h-4.751l-5.626-16.627c-1.666-4.917-1.791-5.417-2.083-6.793h-0.084c0,1.459-0.125,5.084-0.25,7.376l-1,16.044
				h-5.084l2.501-30.004h6.792l5.376,16.919c0.792,2.5,1.458,4.667,1.875,6.876h0.083c0.501-2.209,1.167-4.376,2.001-6.959
				l5.542-16.836h6.668l2.375,30.004h-5.292L537.091,393.454z"/>
			<path fill="#2A3380" d="M550.543,379.619h19.086v4.584h-13.835v7.918h12.085v4.334h-12.085v8.751h13.96v4.417h-19.211V379.619z"
				/>
			<path fill="#2A3380" d="M575.75,379.619h5.626l12.501,19.961v-19.961h4.876v30.004h-4.376l-13.751-21.961v21.961h-4.876V379.619z
				"/>
			<path fill="#2A3380" d="M612.291,384.203h-8.335v-4.584h21.92v4.584h-8.335v25.42h-5.25V384.203z"/>
			<path fill="#2A3380" d="M640.912,379.619h5.251v25.42h12.543v4.584h-17.794V379.619z"/>
			<path fill="#2A3380" d="M663.911,379.619h5.251v25.42h12.543v4.584h-17.794V379.619z"/>
			<path fill="#2A3380" d="M705.329,407.498c-2.25,1.5-5.251,2.625-8.751,2.625c-7.584,0-12.918-5.209-12.918-15.168
				c0-10.293,5.667-15.836,13.626-15.836c3.167,0,5.793,0.875,7.918,2.334l-1.334,4.709c-2.083-1.417-4.042-2.501-6.709-2.501
				c-4.75,0-8.251,3.459-8.251,11.085s3.501,10.96,8.335,10.96c2.583,0,4.625-0.917,6.75-2.5L705.329,407.498z"/>
		</g>
	</g>
</g>
</svg>
