<?xml version="1.0" encoding="utf-8"?>
<!-- Generator: Adobe Illustrator 17.0.0, SVG Export Plug-In . SVG Version: 6.00 Build 0)  -->
<!DOCTYPE svg PUBLIC "-//W3C//DTD SVG 1.1//EN" "http://www.w3.org/Graphics/SVG/1.1/DTD/svg11.dtd">
<svg version="1.1" xmlns="http://www.w3.org/2000/svg" xmlns:xlink="http://www.w3.org/1999/xlink" x="0px" y="0px" width="792px"
	 height="612px" viewBox="0 0 792 612" enable-background="new 0 0 792 612" xml:space="preserve">
<g id="Layer_1">
</g>
<g id="outlined">
	<g>
		<g>
			<path fill="#2A3380" d="M115.635,241.88v15.59c10.005-11.867,21.872-18.382,36.298-18.382c26.526,0,44.675,21.872,44.675,60.497
				c0,41.65-20.941,63.755-47.467,63.755c-13.263,0-23.966-5.584-33.506-16.753v62.824H86.783V241.88H115.635z M115.635,277.48
				v50.026c8.144,8.609,16.753,12.798,25.828,12.798c15.589,0,26.293-11.867,26.293-38.393s-10.704-38.16-25.362-38.16
				C133.086,263.752,124.477,268.406,115.635,277.48z"/>
			<path fill="#2A3380" d="M292.237,265.614c-1.862-0.232-4.887-0.465-7.446-0.465c-16.753,0-29.318,11.169-34.204,16.288v79.112
				h-28.853V241.88h28.853v18.382c6.748-11.168,18.614-21.174,34.437-21.174c2.56,0,5.352,0.232,7.213,0.698V265.614z"/>
			<path fill="#2A3380" d="M359.018,363.34c-30.016,0-55.378-19.312-55.378-61.66c0-42.813,25.828-62.591,56.309-62.591
				c30.016,0,55.378,19.312,55.378,61.661C415.327,343.562,389.5,363.34,359.018,363.34z M359.483,342.166
				c14.892,0,26.991-11.401,26.991-40.486c0-29.085-12.1-40.487-26.991-40.487s-26.991,11.401-26.991,40.487
				C332.493,330.765,344.592,342.166,359.483,342.166z"/>
			<path fill="#2A3380" d="M429.055,241.88h20.011v-39.556h28.853v39.556h25.828v22.337h-25.828v59.566
				c0,11.867,2.792,15.357,11.867,15.357c5.352,0,10.005-1.164,13.961-2.327v23.035c-6.05,1.164-13.496,2.095-21.872,2.095
				c-24.199,0-32.809-7.679-32.809-33.739v-63.987h-20.011V241.88z"/>
		</g>
	</g>
	<g>
		<g>
			<path fill="#2A3380" d="M537.349,302.048c0-24.387,12.235-46.039,31.146-59.669h-37.429v118.567h36.376
				C549.131,347.281,537.349,325.981,537.349,302.048z"/>
			<path fill="#2A3380" d="M699.08,302.048c0-24.387-12.232-46.039-31.146-59.669h37.431v118.567H668.99
				C687.305,347.281,699.08,325.981,699.08,302.048z"/>
		</g>
	</g>
	<g>
		<g>
			<path fill="#16AF4B" d="M601.579,299.307l-35.604-57.007h30.248l22.806,39.091l22.572-39.091h29.316l-35.599,57.007
				l38.628,61.665h-30.253l-25.829-43.747l-25.595,43.747h-29.317L601.579,299.307z"/>
		</g>
	</g>
</g>
</svg>
